<svg width="20" height="30" viewBox="0 0 20 30" fill="none" xmlns="http://www.w3.org/2000/svg">
<path d="M4.85 0C6.01667 0 6.6 2.03333 6.6 6.1L6.9 13.9H7L15 10.8C15.8 4 16.5333 0.6 17.2 0.6L17.85 0.5C18.4167 0.5 18.9333 0.95 19.4 1.85C18.2333 7.5833 17.65 12.55 17.65 16.75V18.9C17.65 21.9667 18.3833 24.8833 19.85 27.65C19.5167 28.5833 18.9833 29.05 18.25 29.05C16.65 29.05 15.4667 25.8167 14.7 19.35V14.25H14.4C9.4 16.0167 6.9 17.15 6.9 17.65C6.9 25.5833 6.16667 29.55 4.7 29.55H4.5C3.8 29.55 3.35 28.9667 3.15 27.8C3.65 24.1667 3.9 21.35 3.9 19.35L1.7 20.5L1.25 20.6C0.416667 20.3 0 19.7833 0 19.05C0 18.3167 1.3 17.1667 3.9 15.6V15.5C3.8 9.7667 3.58333 5.01667 3.25 1.25C3.25 0.51667 3.78333 0.1 4.85 0Z" fill="#3A88FE"/>
</svg>
