<svg id="visual" viewBox="0 0 600 900" width="600" height="900" xmlns="http://www.w3.org/2000/svg" xmlns:xlink="http://www.w3.org/1999/xlink" version="1.1"><path d="M0 154L12.5 154C25 154 50 154 75 172C100 190 125 226 150 245.5C175 265 200 268 225 247C250 226 275 181 300 181C325 181 350 226 375 227.5C400 229 425 187 450 175C475 163 500 181 525 181C550 181 575 163 587.5 154L600 145L600 0L587.5 0C575 0 550 0 525 0C500 0 475 0 450 0C425 0 400 0 375 0C350 0 325 0 300 0C275 0 250 0 225 0C200 0 175 0 150 0C125 0 100 0 75 0C50 0 25 0 12.5 0L0 0Z" fill="#0d1423"></path><path d="M0 577L12.5 556C25 535 50 493 75 476.5C100 460 125 469 150 496C175 523 200 568 225 577C250 586 275 559 300 569.5C325 580 350 628 375 631C400 634 425 592 450 569.5C475 547 500 544 525 535C550 526 575 511 587.5 503.5L600 496L600 143L587.5 152C575 161 550 179 525 179C500 179 475 161 450 173C425 185 400 227 375 225.5C350 224 325 179 300 179C275 179 250 224 225 245C200 266 175 263 150 243.5C125 224 100 188 75 170C50 152 25 152 12.5 152L0 152Z" fill="#3a88fe"></path><path d="M0 901L12.5 901C25 901 50 901 75 901C100 901 125 901 150 901C175 901 200 901 225 901C250 901 275 901 300 901C325 901 350 901 375 901C400 901 425 901 450 901C475 901 500 901 525 901C550 901 575 901 587.5 901L600 901L600 494L587.5 501.5C575 509 550 524 525 533C500 542 475 545 450 567.5C425 590 400 632 375 629C350 626 325 578 300 567.5C275 557 250 584 225 575C200 566 175 521 150 494C125 467 100 458 75 474.5C50 491 25 533 12.5 554L0 575Z" fill="#0d1423"></path></svg>