<svg xmlns="http://www.w3.org/2000/svg" fill-rule="evenodd" stroke-linejoin="round" stroke-miterlimit="2" clip-rule="evenodd" fill="none" viewBox="-10 -10 45 42"><path d="m24.572 27.902-1.732 1a1.001 1.001 0 0 1-1.496-.963l.831-8.562a1 1 0 0 1 1.409-.814l7.83 3.562a1 1 0 0 1 .086 1.777l-1.732 1 1.5 2.598a3 3 0 0 1-5.196 3l-1.5-2.598ZM18.473 23.34l1.732-1a1 1 0 0 0-1-1.733l-1.732 1a1 1 0 0 0 1 1.732ZM27.134 18.34l1.732-1a1 1 0 0 0-1-1.733l-1.732 1a1 1 0 0 0 1 1.732ZM22.036 15.509l-1-1.732a1 1 0 0 0-1.732 1l1 1.732a1 1 0 0 0 1.732-1ZM2 9V3a1 1 0 0 1 1-1V1v1a1 1 0 0 1 1 1v6a1 1 0 0 0 2 0V3a3 3 0 0 0-3-3v1-1a3 3 0 0 0-3 3v6a1 1 0 0 0 2 0ZM2 20v-7a1 1 0 0 0-2 0v7a1 1 0 0 0 2 0Z" stroke="#fff"/><path d="M1 6.5h3.5a1 1 0 0 0 0-2H1a1 1 0 0 0 0 2ZM5 15h1a3 3 0 0 1-3 3H1a1 1 0 0 1-1-1v-4a1 1 0 0 1 1-1h2a3 3 0 0 1 3 3H5h1-1Zm-1 0a1 1 0 0 0-1-1H2v2h1a1 1 0 0 0 1-1h1-1Z" stroke="#fff"/><path d="M5 19h1a3 3 0 0 1-3 3H1a1 1 0 0 1-1-1v-4a1 1 0 0 1 1-1h2a3 3 0 0 1 3 3H5h1-1Zm-1 0a1 1 0 0 0-1-1H2v2h1a1 1 0 0 0 1-1h1-1ZM16.999 17a3 3 0 0 0-3-3h-3a3 3 0 0 0-3 3h1-1a3 3 0 0 0 3 3h3a3 3 0 0 0 3-3h-1 1ZM31 5h1c0-.796-.316-1.559-.879-2.121A2.996 2.996 0 0 0 29 2H11c-.796 0-1.559.316-2.121.879A2.996 2.996 0 0 0 8 5h1-1c0 .796.316 1.559.879 2.121A2.996 2.996 0 0 0 11 8h18c.796 0 1.559-.316 2.121-.879A2.996 2.996 0 0 0 32 5h-1Z" stroke="#fff"/></svg>