<svg class="svg-icon" style="width: 1em;height: 1em;vertical-align: middle;overflow: hidden;" viewBox="0 0 1024 1024" version="1.1" xmlns="http://www.w3.org/2000/svg" fill="#fff" ><path d="M892.2 932.4H130.5c-18 0-32.6-14.6-32.6-32.6V138.2c0-18 14.6-32.6 32.6-32.6s32.6 14.6 32.6 32.6v729h729c18 0 32.6 14.6 32.6 32.6s-14.5 32.6-32.5 32.6z"  /><path d="M405.3 382.8m-70.3 0a70.3 70.3 0 1 0 140.6 0 70.3 70.3 0 1 0-140.6 0Z"  stroke="#fff"/><path d="M786.2 586.4m-75.4 0a75.4 75.4 0 1 0 150.8 0 75.4 75.4 0 1 0-150.8 0Z"  stroke="#fff"/><path d="M683.8 221m-51.2 0a51.2 51.2 0 1 0 102.4 0 51.2 51.2 0 1 0-102.4 0Z" stroke="#fff" /><path d="M283.1 550m-51.2 0a51.2 51.2 0 1 0 102.4 0 51.2 51.2 0 1 0-102.4 0Z" stroke="#fff" /><path d="M542 674.5m-66.3 0a66.3 66.3 0 1 0 132.6 0 66.3 66.3 0 1 0-132.6 0Z"  stroke="#fff"/><path d="M152 911.9c-8.3 0-16.7-3.2-23-9.5-12.7-12.7-12.7-33.4 0-46.1l709.6-709.6c12.7-12.7 33.4-12.7 46.1 0 12.7 12.7 12.7 33.4 0 46.1L175.1 902.4c-6.4 6.4-14.7 9.5-23.1 9.5z"  stroke="#fff"/></svg>
