<svg width="98" height="178" viewBox="0 0 98 178" fill="none" xmlns="http://www.w3.org/2000/svg">
<g clip-path="url(#clip0_4_6)">
<path d="M44.1885 155.18C26.0753 148.627 10.015 133.535 8.67568 116.249C7.33632 98.9617 20.7179 79.4796 29.4126 61.4035C38.1183 43.2822 42.092 26.5559 53.0726 18.2525C64.0189 9.89303 81.972 9.95636 97.2341 10.2806C112.451 10.5941 124.977 11.1685 141.168 9.61358C157.36 8.05871 177.173 4.36373 196.68 9.2928C216.187 14.2219 235.389 27.775 242.641 45.91C249.883 64.0903 245.265 86.8741 231.389 101.458C217.557 116.053 194.467 122.449 179.996 136.126C165.515 149.848 159.607 170.84 148.133 175.632C136.613 180.413 119.516 169.038 100.947 164.382C82.343 159.671 62.2564 161.723 44.1885 155.18Z" stroke="#3A88FE" stroke-width="6"/>
</g>
<defs>
<clipPath id="clip0_4_6">
<rect width="98" height="178" fill="white"/>
</clipPath>
</defs>
</svg>
