<svg width="111" height="120" viewBox="0 0 111 120" fill="none" xmlns="http://www.w3.org/2000/svg">
<g clip-path="url(#clip0_4_3)">
<path d="M55.9175 -27.7624C68.9962 -24.2974 81.6902 -16.2124 89.8964 -4.59823C98.0385 6.95177 101.693 22.0309 100.282 36.2759C98.8719 50.5851 92.5249 64.0601 85.0239 76.8293C77.5229 89.5984 68.9962 101.726 57.3279 107.501C45.6597 113.276 30.9142 112.698 18.4125 108.848C5.91084 104.934 -4.34694 97.6834 -13.0019 90.1759C-21.7211 82.7326 -28.7733 74.9684 -38.6464 66.0493C-48.4554 57.1943 -61.0212 47.1201 -61.534 36.8534C-61.9828 26.5226 -50.3787 15.9351 -43.4547 2.01094C-36.5307 -11.8491 -34.2227 -29.0457 -25.0548 -34.7566C-15.8869 -40.4674 0.140837 -34.7566 14.8223 -32.4466C29.5037 -30.1366 42.9029 -31.2274 55.9175 -27.7624Z" stroke="#3A88FE" stroke-width="6"/>
</g>
<defs>
<clipPath id="clip0_4_3">
<rect width="111" height="120" fill="white"/>
</clipPath>
</defs>
</svg>
