<svg width="1920" height="629" viewBox="0 0 1920 629" fill="none" xmlns="http://www.w3.org/2000/svg">
<path d="M-93.7206 625.63L-65.9587 583.508C-38.1969 541.385 17.3268 457.141 89.6381 443.551C161.648 429.775 250.747 486.84 326.385 488.817C402.324 490.98 465.103 438.242 533.017 407.8C600.875 377.116 673.923 368.971 750.823 377.548C827.722 386.126 908.584 411.91 977.435 383.294C1046.04 354.735 1102.88 271.719 1168.36 229.588C1234.03 187.157 1308.53 185.314 1377.56 159.719C1446.53 133.882 1510.09 84.5365 1580.58 65.2431C1651.06 45.9497 1728.57 57.1929 1805.57 63.9608C1882.38 71.0275 1958.98 73.8047 2031.66 62.9372C2104.64 52.2555 2173.89 27.6304 2208.57 15.5601L2243.2 3.24748" stroke="white" stroke-width="6" stroke-linecap="round"/>
</svg>
