<svg width="961" height="589" viewBox="0 0 961 589" fill="none" xmlns="http://www.w3.org/2000/svg">
<path d="M876.721 242.49C889.576 285.014 875.127 334.592 843.039 358.205C811.052 381.921 761.326 379.57 730.136 355.343C698.846 331.117 686.091 284.912 698.148 243.512C710.106 202.112 746.977 165.619 785.342 165.005C823.807 164.494 863.966 199.965 876.721 242.49Z" stroke="white" stroke-width="6"/>
<path d="M297.448 82.8198C305.42 109.398 288.081 142.824 261.475 162.553C234.868 182.282 198.894 188.313 176.872 172.367C154.849 156.522 146.777 118.7 156.842 89.0554C166.807 59.4109 195.108 37.7398 225.8 37.0243C256.393 36.2065 289.576 56.1398 297.448 82.8198Z" stroke="white" stroke-width="6"/>
<path d="M168.424 478.589C176.197 504.042 161.548 536.14 137.333 553.927C113.218 571.611 79.636 575.087 56.6168 559.038C33.498 542.989 20.9421 507.313 29.9106 480.122C38.9788 452.931 69.5714 434.224 99.9646 434.224C130.458 434.327 160.652 453.135 168.424 478.589Z" stroke="white" stroke-width="6"/>
</svg>
