<svg width="375" height="128" viewBox="0 0 375 128" fill="none" xmlns="http://www.w3.org/2000/svg">
<path d="M-17.5235 124.872L-12.1013 116.682C-6.67908 108.492 4.1654 92.1107 18.2887 89.4683C32.3532 86.7896 49.7553 97.8855 64.5283 98.27C79.3601 98.6906 91.6217 88.4359 104.886 82.5167C118.14 76.5504 132.407 74.9666 147.426 76.6344C162.446 78.3022 178.239 83.3159 191.687 77.7517C205.086 72.1985 216.188 56.0564 228.977 47.8642C241.803 39.6139 256.354 39.2554 269.836 34.2787C283.307 29.2548 295.722 19.6599 309.488 15.9084C323.253 12.1569 338.393 14.3431 353.432 15.659C368.434 17.0331 383.394 17.5731 397.589 15.46C411.843 13.383 425.369 8.5948 432.143 6.24781L438.906 3.85368" stroke="white" stroke-width="6" stroke-linecap="round"/>
</svg>
